<svg xmlns="http://www.w3.org/2000/svg" width="28.887" height="28.889" viewBox="0 0 28.887 28.889">
    <path id="Caminho_41" data-name="Caminho 41" d="M27.735,28.889a1.116,1.116,0,0,1-.8-.348L14.444,16.05,1.952,28.542a1.114,1.114,0,0,1-.8.346,1.177,1.177,0,0,1-1.068-.733,1.09,1.09,0,0,1,.258-1.219L12.838,14.443.346,1.951A1.091,1.091,0,0,1,.086.733,1.179,1.179,0,0,1,1.156,0a1.113,1.113,0,0,1,.8.345L14.444,12.837,26.936.345a1.114,1.114,0,0,1,.8-.345A1.179,1.179,0,0,1,28.8.732a1.091,1.091,0,0,1-.259,1.219L16.051,14.443,28.543,26.935a1.094,1.094,0,0,1,.258,1.222,1.175,1.175,0,0,1-1.065.732" transform="translate(0)" fill="#040405"/>
</svg>
